<svg width="252" height="69" viewBox="0 0 252 69" fill="none" xmlns="http://www.w3.org/2000/svg">
<g clip-path="url(#clip0_64_23)">
<path d="M119.827 1.65417H139.047V5.14598H123.842V14.7085H138.096V18.1992H123.842V31.5095H119.827V1.65417Z" fill="black"/>
<path d="M143.085 31.5095V0H146.96V31.5095H143.085Z" fill="black"/>
<path d="M170.854 25.1594C170.854 27.2796 170.88 30.1848 170.896 31.5095H167.123C167.037 30.9357 166.994 29.6164 166.978 28.2832C165.899 30.685 163.813 32.0246 160.428 32.0246C156.722 32.0246 153.241 30.1496 153.241 24.0406V9.715H157.091V23.2119C157.091 26.051 157.978 28.6512 161.529 28.6512C165.457 28.6512 166.978 26.4712 166.978 21.0874V9.715H170.854V25.1594Z" fill="black"/>
<path d="M177.206 0H181.083V4.73858H177.206V0ZM177.206 9.71499H181.083V58.3486H177.206V9.71499Z" fill="black"/>
<path d="M205.621 -2.17429e-06V25.3599C205.621 27.4044 205.621 29.4127 205.665 31.5095H201.941C201.835 30.9282 201.764 29.2879 201.748 28.4613C200.677 30.701 198.492 32.0246 194.946 32.0246C189.364 32.0246 185.926 27.4908 185.926 20.8367C185.926 14.1272 189.631 9.19986 195.65 9.19986C199.459 9.19986 201.171 10.7346 201.748 11.944V-0.00106812L205.621 -2.17429e-06ZM189.942 20.7183C189.942 25.9273 192.389 28.744 195.782 28.744C200.812 28.744 201.896 25.0005 201.896 20.3099C201.896 15.5265 200.912 12.4816 196.07 12.4816C192.272 12.4816 189.942 15.4956 189.942 20.7183Z" fill="black"/>
<path d="M28.1891 44.2363H13.4031V54.6435H29.6432L29.121 58.1353H9.40985V28.28H28.8922V31.7718H13.4031V40.7445H28.1891V44.2363Z" fill="black"/>
<path d="M34.011 41.8324C34.011 39.9436 34.011 38.026 33.9684 36.3408H37.7351C37.8415 36.9808 37.8968 39.2279 37.8862 39.8785C38.7467 38.0334 40.5189 35.8257 44.7005 35.8257C48.7895 35.8257 51.9594 38.3502 51.9594 44.1276V58.1353H48.0811V44.6182C48.0811 41.3717 46.8237 39.1789 43.541 39.1789C39.5254 39.1789 37.884 42.2153 37.884 46.5667V58.1353H34.011V41.8324Z" fill="black"/>
<path d="M76.2787 56.1345C76.2787 63.1181 73.4183 67.1197 66.2604 67.1197C59.5971 67.1197 57.5962 63.3784 57.2132 60.4433H61.165C61.7895 62.7832 63.6574 64.0353 66.4295 64.0353C71.3078 64.0353 72.5066 60.9424 72.5066 55.9607V54.2361C71.3504 56.6497 69.3665 58.0212 65.7476 58.0212C60.3779 58.0212 56.7527 53.6303 56.7527 47.2717C56.7527 40.1739 60.88 35.8257 66.1455 35.8257C70.2685 35.8257 72.0216 37.7721 72.5066 39.1938C72.5492 38.2275 72.6407 36.7909 72.6843 36.3408H76.3489C76.3329 37.6399 76.2797 40.5387 76.2797 42.6334L76.2787 56.1345ZM60.7725 47.1021C60.7725 51.653 63.1266 54.7214 66.6316 54.7214C71.2642 54.7214 72.613 51.6018 72.613 46.8291C72.613 41.9988 71.3589 39.1106 66.7624 39.1106C62.8181 39.1031 60.7725 42.4094 60.7725 47.1021Z" fill="black"/>
<path d="M82.6281 26.6248H86.5044V31.3634H82.6281V26.6248ZM82.6281 36.3398H86.5044V58.1353H82.6281V36.3398Z" fill="black"/>
<path d="M92.8773 41.8324C92.8773 39.9436 92.8773 38.026 92.8347 36.3408H96.6014C96.7078 36.9808 96.7631 39.2279 96.7535 39.8785C97.613 38.0334 99.3852 35.8257 103.561 35.8257C107.65 35.8257 110.82 38.3502 110.82 44.1276V58.1353H106.945V44.6182C106.945 41.3717 105.688 39.1789 102.404 39.1789C98.3885 39.1789 96.7482 42.2153 96.7482 46.5667V58.1353H92.8719L92.8773 41.8324Z" fill="black"/>
<path d="M119.522 47.9553C119.547 52.2961 121.725 55.421 125.378 55.421C128.765 55.421 129.857 53.6868 130.545 52.1073H134.448C133.597 54.892 131.257 58.6526 125.26 58.6526C118.407 58.6526 115.602 53.0949 115.602 47.4775C115.602 40.9717 118.872 35.8278 125.495 35.8278C132.53 35.8278 134.842 41.4559 134.842 46.1475C134.853 46.7525 134.833 47.3576 134.783 47.9606L119.522 47.9553ZM130.919 45.2463C130.875 41.7182 129.12 38.877 125.447 38.877C121.675 38.877 120.022 41.5092 119.649 45.2463H130.919Z" fill="black"/>
<path d="M142.296 47.9553C142.323 52.2961 144.501 55.421 148.153 55.421C151.54 55.421 152.632 53.6868 153.321 52.1073H157.221C156.37 54.892 154.036 58.6526 148.033 58.6526C141.181 58.6526 138.376 53.0949 138.376 47.4775C138.376 40.9717 141.645 35.8278 148.274 35.8278C155.309 35.8278 157.621 41.4559 157.621 46.1475C157.632 46.7525 157.612 47.3576 157.562 47.9606L142.296 47.9553ZM153.694 45.2463C153.651 41.7182 151.896 38.877 148.223 38.877C144.451 38.877 142.798 41.5092 142.425 45.2463H153.694Z" fill="black"/>
<path d="M162.433 42.2622C162.433 39.2631 162.407 37.5375 162.391 36.3408H166.19C166.25 36.9466 166.309 38.6808 166.309 40.7563C167.437 37.8318 170.013 35.9324 173.613 35.8257V39.6865C169.159 39.8071 166.309 42.0777 166.309 47.613V58.1353H162.433V42.2622Z" fill="black"/>
<path d="M187.62 41.8324C187.62 39.9436 187.62 38.026 187.578 36.3408H191.344C191.451 36.9808 191.506 39.2279 191.497 39.8785C192.356 38.0334 194.128 35.8257 198.31 35.8257C202.399 35.8257 205.569 38.3502 205.569 44.1276V58.1353H201.694V44.6182C201.694 41.3717 200.436 39.1789 197.152 39.1789C193.137 39.1789 191.497 42.2153 191.497 46.5667V58.1353H187.62V41.8324Z" fill="black"/>
<path d="M229.888 56.1345C229.888 63.1181 227.028 67.1197 219.87 67.1197C213.208 67.1197 211.206 63.3784 210.828 60.4433H214.78C215.403 62.7832 217.271 64.0353 220.043 64.0353C224.923 64.0353 226.12 60.9424 226.12 55.9607V54.2361C224.964 56.6497 222.98 58.0212 219.362 58.0212C213.991 58.0212 210.367 53.6303 210.367 47.2717C210.367 40.1739 214.494 35.8257 219.759 35.8257C223.882 35.8257 225.635 37.7721 226.12 39.1938C226.163 38.2275 226.255 36.7909 226.298 36.3408H229.963C229.947 37.6399 229.893 40.5387 229.893 42.6334L229.888 56.1345ZM214.382 47.1021C214.382 51.653 216.736 54.7214 220.241 54.7214C224.874 54.7214 226.222 51.6018 226.222 46.8291C226.222 41.9988 224.968 39.1106 220.372 39.1106C216.427 39.1031 214.382 42.4094 214.382 47.1021Z" fill="black"/>
<path d="M110.95 1.51874H1.53818V18.1992H110.95V1.51874Z" fill="black"/>
<path d="M251.121 1.51874H214.211V18.1992H251.121V1.51874Z" fill="black"/>
<path d="M252 68.4838V1.51874L235.742 1.51874V68.4838H252Z" fill="black"/>
<path d="M51.9594 68.6609H0V1.51874H3.07527V65.5775H51.9594V68.6609Z" fill="black"/>
<path d="M205.569 65.5775H82.6281V68.6619H205.569V65.5775Z" fill="black"/>
</g>
<defs>
<clipPath id="clip0_64_23">
<rect width="252" height="68.6609" fill="white"/>
</clipPath>
</defs>
</svg>
